<svg xmlns="http://www.w3.org/2000/svg" viewBox="0 0 710.13 281.78"><defs><style>.cls-1{fill:#ff7500;}</style></defs><g id="Layer_2" data-name="Layer 2"><g id="Layer_1-2" data-name="Layer 1"><path class="cls-1" d="M355.07,281.78c-93.93,0-182.32-14.12-248.9-39.77C37.71,215.63,0,179.72,0,140.89S37.71,66.15,106.17,39.77C172.75,14.12,261.14,0,355.07,0S537.39,14.12,604,39.77c68.46,26.38,106.17,62.29,106.17,101.12S672.42,215.63,604,242C537.39,267.66,449,281.78,355.07,281.78Zm0-269.08c-92.64,0-179.65,13.86-245,39-62.54,24.09-98.4,56.59-98.4,89.15S47.53,206,110.07,230c65.35,25.18,152.36,39,245,39s179.64-13.86,245-39c62.54-24.09,98.4-56.58,98.4-89.15s-35.86-65.06-98.4-89.15C534.71,26.56,447.7,12.7,355.07,12.7Z"/><line class="cls-1" x1="215.8" y1="62.38" x2="493.34" y2="62.38"/><rect class="cls-1" x="215.8" y="60.19" width="277.54" height="4.37"/><line class="cls-1" x1="215.8" y1="219.4" x2="493.34" y2="219.4"/><rect class="cls-1" x="215.8" y="217.22" width="277.54" height="4.37"/><path class="cls-1" d="M140.75,180.28v-.05c0-5.34,4.22-9.33,9.87-9.33a10.88,10.88,0,0,1,7.49,2.71l-3.35,4a6,6,0,0,0-4-1.56,4,4,0,0,0-4,4.22v.05a4.07,4.07,0,0,0,4.27,4.27,3.79,3.79,0,0,0,2-.41v-1.79H150v-3.84h8.67v8.29a12.2,12.2,0,0,1-7.9,2.68C145.2,189.56,140.75,185.83,140.75,180.28Z"/><path class="cls-1" d="M160.5,171.28h6v17.9h-6Z"/><path class="cls-1" d="M174.82,171.15h5.93l7.55,18h-6.5l-1-2.4h-6.26l-.92,2.4h-6.4Zm1.74-3.63c1.12-.08,1.89-.41,1.89-1.41,0-.07-.1-.46-.72-.43a1.55,1.55,0,0,0-1.27,1.18L174,165.6c1.16-2.32,2.56-2.63,3.89-2.63,2,0,3.56,1.2,3.56,3.12a2.94,2.94,0,0,1-2.2,2.89l-.16,1h-2.4Zm2.81,15-1.64-4.35-1.63,4.35Z"/><path class="cls-1" d="M189.09,171.28h6v17.9h-6Z"/><path class="cls-1" d="M203.68,171.28h8c4.76,0,8,2.12,8,6.37v0c0,4.32-3.3,6.62-8.14,6.62h-1.94v4.86h-6Zm7.59,8.77c1.53,0,2.56-.66,2.56-2V178c0-1.3-.92-2-2.53-2h-1.64v4Z"/><path class="cls-1" d="M221,171.28h6v6.32h5.48v-6.32h6v17.9h-6v-6.42H227v6.42h-6Z"/><path class="cls-1" d="M246.75,171.15h5.93l7.55,18h-6.5l-.94-2.4h-6.27l-.92,2.4h-6.39Zm2.48-6.08,5.65,1.45L250.66,170h-3.88Zm2.07,17.46-1.63-4.35L248,182.53Z"/><path class="cls-1" d="M261,171.28h8c4.76,0,8,2.12,8,6.37v0c0,4.32-3.3,6.62-8.14,6.62H267v4.86h-6Zm7.59,8.77c1.53,0,2.56-.66,2.56-2V178c0-1.3-.92-2-2.53-2H267v4Z"/><path class="cls-1" d="M284.41,180.28v-.05a9.25,9.25,0,0,1,9.51-9.33,8.75,8.75,0,0,1,8.11,4.65l-4.94,2.89a3.47,3.47,0,0,0-3.25-2.17c-2,0-3.35,1.76-3.35,3.91v0c0,2.33,1.38,4,3.35,4a3.64,3.64,0,0,0,3.38-2.25l4.93,2.79a9.48,9.48,0,0,1-17.74-4.45Z"/><path class="cls-1" d="M303.31,171.28h6v6.32h5.47v-6.32h6v17.9h-6v-6.42H309.3v6.42h-6Z"/><path class="cls-1" d="M322.39,180.28v-.05a9.48,9.48,0,0,1,9.8-9.33c5.52,0,9.74,4.06,9.74,9.28v0a9.47,9.47,0,0,1-9.79,9.33C326.61,189.56,322.39,185.5,322.39,180.28Zm13.51,0v-.05a3.83,3.83,0,0,0-3.76-4,3.77,3.77,0,0,0-3.71,4v0a3.83,3.83,0,0,0,3.76,4A3.78,3.78,0,0,0,335.9,180.28Z"/><path class="cls-1" d="M349.66,180.28v-.05a9.25,9.25,0,0,1,9.52-9.33,8.72,8.72,0,0,1,8.1,4.65l-4.93,2.89a3.47,3.47,0,0,0-3.25-2.17c-2,0-3.35,1.76-3.35,3.91v0c0,2.33,1.38,4,3.35,4a3.66,3.66,0,0,0,3.38-2.25l4.93,2.79a9.49,9.49,0,0,1-17.75-4.45Z"/><path class="cls-1" d="M368.16,180.28v-.05A9.47,9.47,0,0,1,378,170.9c5.53,0,9.75,4.06,9.75,9.28v0a9.48,9.48,0,0,1-9.8,9.33C372.38,189.56,368.16,185.5,368.16,180.28Zm7.67-14.68H380l3.41,4.4h-3.25l-2.28-1.43L375.63,170h-3.2Zm5.83,14.68v-.05a3.83,3.83,0,0,0-3.76-4,3.78,3.78,0,0,0-3.71,4v0a3.83,3.83,0,0,0,3.76,4A3.77,3.77,0,0,0,381.66,180.28Zm-6,10.41h4.5v3.38h-4.5Z"/><path class="cls-1" d="M393.92,176.34h-5.27v-5.06h16.52v5.06H399.9v12.84h-6Z"/><path class="cls-1" d="M411.54,186.5l3.2-3.81a10.09,10.09,0,0,0,6.27,2.09c1.1,0,1.53-.28,1.53-.76V184c0-.51-.56-.79-2.48-1.17-4-.82-7.54-2-7.54-5.76V177c0-3.4,2.68-6,7.59-6a12.37,12.37,0,0,1,8.08,2.45l-2.91,4a9.52,9.52,0,0,0-5.37-1.76c-.9,0-1.31.31-1.31.74v.05c0,.49.46.82,2.38,1.15,4.58.82,7.65,2.2,7.65,5.78v0c0,3.76-3.1,6.06-7.91,6.06A13.67,13.67,0,0,1,411.54,186.5Z"/><path class="cls-1" d="M429.6,180.28v-.05a9.48,9.48,0,0,1,9.8-9.33c5.52,0,9.74,4.06,9.74,9.28v0a9.47,9.47,0,0,1-9.79,9.33C433.82,189.56,429.6,185.5,429.6,180.28Zm7.67-14.68h4.2l3.4,4.4h-3.25l-2.27-1.43L437.07,170h-3.2Zm5.84,14.68v-.05a3.83,3.83,0,0,0-3.76-4,3.77,3.77,0,0,0-3.71,4v0a3.83,3.83,0,0,0,3.76,4A3.78,3.78,0,0,0,443.11,180.28ZM445.76,162l5.66,1.45-4.22,3.46h-3.89Z"/><path class="cls-1" d="M450.78,171.28h5.6l6.37,7.9v-7.9h5.93v17.9h-5.31l-6.65-8.26v8.26h-5.94Z"/><path class="cls-1" d="M470.33,180.28v-.05c0-5.34,4.22-9.33,9.87-9.33a10.88,10.88,0,0,1,7.49,2.71l-3.35,4a6,6,0,0,0-4-1.56,4,4,0,0,0-4,4.22v.05a4.07,4.07,0,0,0,4.27,4.27,3.79,3.79,0,0,0,2.05-.41v-1.79h-3.07v-3.84h8.67v8.29a12.2,12.2,0,0,1-7.9,2.68C474.78,189.56,470.33,185.83,470.33,180.28Z"/><path class="cls-1" d="M496.52,171.28h6V178l5.08-6.7h7l-6.24,7.77,6.37,10.13h-7.14L504,183.5l-1.53,1.87v3.81h-6Z"/><path class="cls-1" d="M515.2,171.28h6v6.32h5.47v-6.32h6v17.9h-6v-6.42h-5.47v6.42h-6Z"/><path class="cls-1" d="M534.28,180.28v-.05a9.47,9.47,0,0,1,9.79-9.33c5.53,0,9.75,4.06,9.75,9.28v0a9.48,9.48,0,0,1-9.8,9.33C538.5,189.56,534.28,185.5,534.28,180.28Zm8.49-12.76c1.12-.08,1.89-.41,1.89-1.41,0-.07-.1-.46-.71-.43a1.55,1.55,0,0,0-1.28,1.18l-2.48-1.26c1.15-2.32,2.55-2.63,3.88-2.63,2,0,3.56,1.2,3.56,3.12a2.93,2.93,0,0,1-2.2,2.89l-.16,1h-2.4Zm5,12.76v-.05a3.83,3.83,0,0,0-3.76-4,3.78,3.78,0,0,0-3.71,4v0a3.83,3.83,0,0,0,3.76,4A3.77,3.77,0,0,0,547.78,180.28Z"/><path class="cls-1" d="M555.46,171.28h15.27v4.91h-9.39V178h8.75v4.32h-8.75v1.94h9.51v4.91H555.46Z"/><path class="cls-1" d="M167.85,101c-15.75,0-27.92,12-27.92,27.09v.15c0,15.14,12,26.94,27.77,26.94s27.92-12,27.92-27.09V128C195.62,112.83,183.59,101,167.85,101Zm10.57,27.24c0,6.09-4.09,11.58-10.57,11.58s-10.72-5.57-10.72-11.73V128c0-6.09,4.08-11.58,10.57-11.58s10.72,5.56,10.72,11.72Z"/><path class="cls-1" d="M328.15,101c-15.75,0-27.92,12-27.92,27.09v.15c0,15.14,12,26.94,27.77,26.94s27.92-12,27.92-27.09V128C355.92,112.83,343.89,101,328.15,101Zm10.57,27.24c0,6.09-4.09,11.58-10.57,11.58s-10.72-5.57-10.72-11.73V128c0-6.09,4.08-11.58,10.57-11.58s10.72,5.56,10.72,11.72Z"/><path class="cls-1" d="M513.88,128c0-15.15-12-26.95-27.78-26.95s-27.92,12-27.92,27.09v.15c0,15.14,12,26.94,27.78,26.94s27.92-12,27.92-27.09Zm-17.21.29c0,6.09-4.08,11.58-10.57,11.58s-10.71-5.57-10.71-11.73V128c0-6.09,4.08-11.58,10.57-11.58s10.71,5.56,10.71,11.72Z"/><path class="cls-1" d="M396.8,137c6-3.15,9.76-8.51,9.76-16.41v-.15c0-5.52-1.48-9.43-4.53-12.73-3.46-3.75-9-6.13-17.83-6.13H360v53.66h16.56V139.88h3.54l9.34,15.33h18.89Zm-6.73-16.74c0,3.3-2.4,5.22-6.37,5.22h-7.14V114.94h7.22c3.89,0,6.29,1.69,6.29,5.14Z"/><path class="cls-1" d="M226.32,116.62c4.53,0,7.07,2.52,9,6.31L249,114.54C244.79,106.6,237.5,101,226.53,101c-14.79,0-26.33,11.58-26.33,27.09v.15c0,16.11,12,26.94,25.69,26.94a25.57,25.57,0,0,0,15.42-4.61c.22-.16.46-.31.67-.48a19.62,19.62,0,0,0,5.49-5.91,5.67,5.67,0,0,0,.91-3.61,1.77,1.77,0,0,0-.46-1,1,1,0,0,0-.23-.18,1.89,1.89,0,0,0-.38-.12,5.23,5.23,0,0,1-3.58-1.8,6.33,6.33,0,0,1-.58-.65,10.05,10.05,0,0,1-1.21-1.83,4.5,4.5,0,0,1-.2-.48,4.23,4.23,0,0,1-.22-1.26c0-.09,0-.18,0-.27s0-.22,0-.36a5.58,5.58,0,0,0,0-1.08,1.86,1.86,0,0,0-.55-1,2.5,2.5,0,0,0-.77-.56,1.89,1.89,0,0,0-1.32-.05,3.34,3.34,0,0,0-1.46,1.24c-3.08,5.1-3.8,5.52-5.43,6.86a8.71,8.71,0,0,1-5.71,1.64c-5.45,0-9.27-4.75-9.27-11.51V128C217.05,121.74,220.73,116.62,226.32,116.62Z"/><path class="cls-1" d="M105.93,101.51s-12.35.06-17.27,0h0c-.82,0-2.87-.25-8.86-2a3.62,3.62,0,0,0-2,0,1.85,1.85,0,0,0-1,.84,2.45,2.45,0,0,0-.26.9,1.82,1.82,0,0,0,.22,1.13,7.58,7.58,0,0,0,.93,1.07c.52.75,1.08,1.33,1.08,3.94a5.32,5.32,0,0,1-1.72,4.4,1.75,1.75,0,0,0-.52,1.2A2.55,2.55,0,0,0,77.92,115a12.78,12.78,0,0,0,4.68,1.65,31.22,31.22,0,0,0,5.05.48c.58,0,1,0,1,0,3.54,0,14.85,0,14.85,0l2.76,0a16.8,16.8,0,0,1,6.83,1.25c3.57,1.61,5.63,4.81,5.63,9.88v.15c0,7.75-4.82,11.12-12.46,11.12h-2.76v-20.8H87v36.45h18.4c20,0,30.08-11.2,30.08-27.15v-.16C135.44,112,125.6,101.51,105.93,101.51Z"/><path class="cls-1" d="M301.1,112.53a1.66,1.66,0,0,0-.5-1.13,4.94,4.94,0,0,1-1.65-4.11c0-2.45.5-3,1-3.71a6.68,6.68,0,0,0,.86-1,1.73,1.73,0,0,0,.2-1.07,2,2,0,0,0-.25-.83,1.73,1.73,0,0,0-.93-.79,2.65,2.65,0,0,0-1.32,0L298,100c-.94.23-1.77.41-2.52.57a39,39,0,0,1-4.65.73c-.19,0-1.25,0-1.25,0H251.92v15.25H266.5v38.66h16.56V116.55h6.66s.58,0,1.44,0a22.83,22.83,0,0,0,4.36-.36,14.13,14.13,0,0,0,2.59-.75C299.82,114.79,301.11,113.8,301.1,112.53Z"/><path class="cls-1" d="M633.37,112.53a2.11,2.11,0,0,0-.32-.5,5.12,5.12,0,0,1-1.41-2.22,7.46,7.46,0,0,1-.33-2.29c0-2.67.57-3.26,1.09-4a7.25,7.25,0,0,0,.94-1.09,2,2,0,0,0,.22-1.17,2.51,2.51,0,0,0-.26-.91,1.86,1.86,0,0,0-1-.86,3.31,3.31,0,0,0-1.91.06,50,50,0,0,1-8.29,1.4H608.66v24l-18.2-24h-16v54.29h17V130.16l19,25.05h15.2V117.32c.6-.07,1.23-.16,1.86-.27,3-.57,6.09-1.76,6.09-3.79A1.6,1.6,0,0,0,633.37,112.53Z"/><path class="cls-1" d="M433.83,101.17H423.59v0c-.09,0-2.77.35-9.89-1.63a7.72,7.72,0,0,0-3.16-.29,2.25,2.25,0,0,0-1.18,1,2.6,2.6,0,0,0-.31,1.06,2.2,2.2,0,0,0,.26,1.35,8.8,8.8,0,0,0,1.12,1.27c.63.9,1.3,1.59,1.3,4.7,0,3.59-1.64,4.78-2.07,5.24a2.09,2.09,0,0,0-.62,1.44c0,1.23,1,2.2,2.46,2.93a18.26,18.26,0,0,0,4.8,1.48q.48.09,1,.15v.31h0v35.06h39.84V140.37H433.83Z"/><path class="cls-1" d="M532.5,101.08h17l21.65,53.86H552.53l-2.72-7.18h-18l-2.64,7.18H510.85Zm13.06,34-4.7-13-4.69,13Z"/></g></g></svg>