<svg width="298" height="119" viewBox="0 0 298 119" fill="none" xmlns="http://www.w3.org/2000/svg">
<g clip-path="url(#clip0_4_990)">
<path d="M148.998 119C109.581 119 72.4887 113.033 44.5531 102.205C15.8245 91.0638 -0.00439453 75.8985 -0.00439453 59.5C-0.00439453 43.1015 15.8203 27.9319 44.5489 16.7955C72.4845 5.9631 109.593 0 148.993 0C188.394 0 225.507 5.9631 253.459 16.7955C282.192 27.9319 298.017 43.1015 298.017 59.5C298.017 75.8985 282.175 91.0638 253.459 102.205C225.507 113.033 188.415 119 148.998 119ZM148.998 5.35918C110.126 5.35918 73.6133 11.2167 46.1855 21.8506C19.9412 32.0242 4.89282 45.7452 4.89282 59.5C4.89282 73.2548 19.9412 86.9758 46.1855 97.1494C73.6091 107.783 110.122 113.62 148.998 113.62C187.873 113.62 224.386 107.766 251.81 97.1494C278.054 86.9758 293.103 73.2506 293.103 59.5C293.103 45.7494 278.054 32.0242 251.81 21.8506C224.386 11.2167 187.873 5.35918 148.998 5.35918Z" fill="#FF7500"/>
<path d="M207.026 25.4199H90.5586V27.2654H207.026V25.4199Z" fill="#FF7500"/>
<path d="M207.026 91.7344H90.5586V93.5799H207.026V91.7344Z" fill="#FF7500"/>
<path d="M59.0645 76.1393C59.0645 73.8799 60.8312 72.1949 63.2064 72.1949C64.3598 72.1649 65.4821 72.5736 66.3495 73.3394L64.9437 75.0286C64.4841 74.6082 63.8862 74.3736 63.2651 74.3698C63.0367 74.3695 62.8106 74.4161 62.6007 74.5067C62.3908 74.5973 62.2015 74.7301 62.0443 74.897C61.8872 75.0638 61.7655 75.2612 61.6868 75.477C61.6081 75.6928 61.574 75.9225 61.5866 76.152C61.5746 76.3922 61.6127 76.6323 61.6984 76.8567C61.7842 77.0812 61.9157 77.2851 62.0845 77.4554C62.2532 77.6256 62.4556 77.7584 62.6784 77.8453C62.9013 77.9321 63.1397 77.971 63.3784 77.9595C63.6756 77.9834 63.9735 77.9235 64.2387 77.7864V77.0304H62.942V75.4214H66.5803V78.9224C65.6414 79.6793 64.4679 80.08 63.2651 80.0542C60.9319 80.0542 59.0645 78.479 59.0645 76.1393Z" fill="#FF7500"/>
<path d="M67.3483 72.3379H69.8661V79.8973H67.3483V72.3379Z" fill="#FF7500"/>
<path d="M73.3617 72.2788H75.8502L79.0143 79.8804H76.2908L75.8921 78.8627H73.2652L72.8791 79.8804H70.1934L73.3617 72.2788ZM74.0919 70.7457C74.5619 70.712 74.885 70.5726 74.885 70.1503C74.885 70.1165 74.843 69.956 74.5829 69.9687C74.4546 69.9878 74.3349 70.045 74.2392 70.1331C74.1435 70.2211 74.0761 70.3359 74.0457 70.4628L73.0134 69.9349C73.496 68.9509 74.0877 68.8242 74.6458 68.8242C75.4851 68.8242 76.1355 69.331 76.1355 70.1418C76.1413 70.4192 76.0535 70.6903 75.8867 70.9112C75.7198 71.132 75.4836 71.2895 75.2165 71.3581L75.1494 71.7804H74.1422L74.0919 70.7457ZM75.2711 77.0805L74.5829 75.2434L73.8988 77.0805H75.2711Z" fill="#FF7500"/>
<path d="M79.35 72.3379H81.8679V79.8973H79.35V72.3379Z" fill="#FF7500"/>
<path d="M85.4684 72.3379H88.8507C90.8482 72.3379 92.2078 73.2332 92.2078 75.0238V75.0491C92.2078 76.8735 90.823 77.8449 88.7961 77.8449H87.982V79.8973H85.4642L85.4684 72.3379ZM88.6576 76.0416C89.2997 76.0416 89.7319 75.7587 89.7319 75.197C89.7319 74.6437 89.3458 74.3523 88.666 74.3523H87.982V76.0416H88.6576Z" fill="#FF7500"/>
<path d="M92.7366 72.3379H95.2544V75.0027H97.5499V72.3379H100.068V79.8973H97.5499V77.1861H95.2544V79.8973H92.7366V72.3379Z" fill="#FF7500"/>
<path d="M103.547 72.2789H106.035L109.203 79.8806H106.476L106.077 78.8628H103.45L103.064 79.8806H100.378L103.547 72.2789ZM104.587 69.707L106.958 70.3236L105.187 71.7806H103.555L104.587 69.707ZM105.456 77.0849L104.768 75.2478L104.067 77.0849H105.456Z" fill="#FF7500"/>
<path d="M109.522 72.3379H112.879C114.877 72.3379 116.236 73.2332 116.236 75.0238V75.0491C116.236 76.8735 114.852 77.8449 112.825 77.8449H112.04V79.8973H109.522V72.3379ZM112.711 76.0416C113.354 76.0416 113.786 75.7587 113.786 75.197C113.786 74.6437 113.4 74.3523 112.72 74.3523H112.04V76.0416H112.711Z" fill="#FF7500"/>
<path d="M119.346 76.1392C119.341 75.6133 119.441 75.0917 119.641 74.6057C119.841 74.1197 120.136 73.6794 120.509 73.311C120.882 72.9427 121.325 72.654 121.812 72.4621C122.299 72.2703 122.819 72.1794 123.341 72.1948C124.035 72.1649 124.722 72.3341 125.324 72.6825C125.926 73.031 126.417 73.5443 126.74 74.1628L124.671 75.3833C124.563 75.1092 124.375 74.8746 124.131 74.7103C123.888 74.5459 123.601 74.4596 123.307 74.4626C122.468 74.4626 121.902 75.2101 121.902 76.1181V76.1392C121.902 77.119 122.481 77.8285 123.307 77.8285C123.611 77.8292 123.908 77.7393 124.16 77.5702C124.413 77.401 124.609 77.1602 124.726 76.8783L126.795 78.0565C126.364 78.8231 125.694 79.4255 124.889 79.7708C124.084 80.1161 123.189 80.1849 122.341 79.9667C121.493 79.7485 120.741 79.2554 120.199 78.5635C119.658 77.8717 119.358 77.0197 119.346 76.1392Z" fill="#FF7500"/>
<path d="M127.281 72.3379H129.799V75.0027H132.099V72.3379H134.617V79.8973H132.099V77.1861H129.791V79.8973H127.273L127.281 72.3379Z" fill="#FF7500"/>
<path d="M135.288 76.1401C135.296 75.6078 135.409 75.0823 135.62 74.5944C135.832 74.1066 136.138 73.6661 136.521 73.2988C136.904 72.9315 137.356 72.6447 137.851 72.4553C138.345 72.2659 138.872 72.1776 139.401 72.1957C141.717 72.1957 143.488 73.9145 143.488 76.119V76.1401C143.48 76.6719 143.368 77.1968 143.156 77.6842C142.945 78.1715 142.639 78.6115 142.256 78.9784C141.873 79.3453 141.422 79.6317 140.928 79.8209C140.434 80.0101 139.908 80.0983 139.38 80.0803C137.059 80.055 135.288 78.3404 135.288 76.1401ZM140.953 76.1401C140.964 75.9244 140.931 75.7088 140.856 75.5062C140.782 75.3036 140.668 75.118 140.522 74.9605C140.375 74.8029 140.198 74.6767 140.002 74.5891C139.806 74.5016 139.594 74.4545 139.38 74.4508C139.166 74.4539 138.955 74.5005 138.759 74.5881C138.563 74.6756 138.388 74.8022 138.242 74.9601C138.096 75.118 137.984 75.304 137.912 75.5068C137.84 75.7097 137.81 75.9251 137.823 76.1401V76.1612C137.813 76.3771 137.847 76.5927 137.921 76.7954C137.996 76.998 138.11 77.1836 138.257 77.341C138.404 77.4985 138.581 77.6247 138.778 77.7122C138.974 77.7997 139.186 77.8467 139.401 77.8505C139.616 77.847 139.829 77.7993 140.025 77.7102C140.222 77.6212 140.398 77.4926 140.544 77.3324C140.689 77.1722 140.8 76.9839 140.871 76.7788C140.941 76.5738 140.969 76.3564 140.953 76.1401Z" fill="#FF7500"/>
<path d="M146.732 76.1391C146.727 75.6132 146.827 75.0916 147.027 74.6056C147.226 74.1196 147.522 73.6793 147.895 73.3109C148.268 72.9426 148.711 72.6538 149.198 72.462C149.684 72.2702 150.204 72.1793 150.727 72.1947C151.42 72.1653 152.108 72.3347 152.71 72.6831C153.311 73.0315 153.802 73.5445 154.126 74.1627L152.057 75.3832C151.949 75.1091 151.76 74.8745 151.517 74.7101C151.273 74.5458 150.986 74.4595 150.693 74.4625C149.854 74.4625 149.287 75.21 149.287 76.118V76.1391C149.287 77.1189 149.867 77.8284 150.693 77.8284C150.996 77.8288 151.292 77.7388 151.544 77.5696C151.796 77.4004 151.992 77.1597 152.107 76.8781L154.18 78.0564C153.75 78.8229 153.08 79.4254 152.275 79.7707C151.47 80.1159 150.575 80.1848 149.727 79.9666C148.879 79.7484 148.127 79.2553 147.585 78.5634C147.044 77.8716 146.744 77.0196 146.732 76.1391Z" fill="#FF7500"/>
<path d="M154.495 76.139C154.499 75.6035 154.61 75.0742 154.821 74.5825C155.032 74.0908 155.339 73.6467 155.724 73.2766C156.109 72.9064 156.563 72.6177 157.061 72.4275C157.558 72.2373 158.088 72.1495 158.62 72.1693C160.937 72.1693 162.708 73.8881 162.708 76.0926V76.1137C162.7 76.6455 162.587 77.1704 162.376 77.6578C162.164 78.1451 161.858 78.5851 161.476 78.952C161.093 79.3189 160.642 79.6054 160.148 79.7945C159.654 79.9838 159.127 80.0719 158.599 80.0539C156.266 80.0539 154.495 78.3393 154.495 76.139ZM157.714 69.9395H159.46L160.886 71.7976H159.527L158.57 71.1937L157.613 71.7976H156.274L157.714 69.9395ZM160.16 76.139C160.17 75.9231 160.136 75.7075 160.062 75.5048C159.987 75.3022 159.873 75.1167 159.726 74.9592C159.579 74.8017 159.402 74.6755 159.205 74.588C159.009 74.5005 158.797 74.4535 158.583 74.4498C158.369 74.4528 158.157 74.4995 157.962 74.587C157.766 74.6746 157.59 74.8011 157.445 74.9591C157.299 75.117 157.187 75.303 157.115 75.5058C157.043 75.7086 157.013 75.924 157.026 76.139V76.1601C157.016 76.3761 157.05 76.5917 157.124 76.7943C157.199 76.997 157.313 77.1825 157.46 77.34C157.607 77.4975 157.784 77.6237 157.981 77.7112C158.177 77.7987 158.389 77.8457 158.603 77.8494C158.819 77.8466 159.032 77.7993 159.229 77.7104C159.427 77.6216 159.603 77.4931 159.749 77.3329C159.895 77.1727 160.007 76.9841 160.078 76.7787C160.148 76.5734 160.176 76.3557 160.16 76.139ZM157.643 80.5353H159.531V81.9586H157.643V80.5353Z" fill="#FF7500"/>
<path d="M165.301 74.4706H163.094V72.3379H170.026V74.4748H167.815V79.8973H165.297L165.301 74.4706Z" fill="#FF7500"/>
<path d="M172.699 78.7574L174.042 77.1484C174.793 77.7348 175.719 78.0475 176.669 78.0352C177.131 78.0352 177.315 77.917 177.315 77.71V77.6889C177.315 77.4735 177.08 77.3553 176.275 77.1906C174.596 76.8485 173.106 76.346 173.106 74.7623C173.106 73.3264 174.235 72.2284 176.296 72.2284C177.512 72.1618 178.713 72.5297 179.686 73.2673L178.461 74.9566C177.803 74.4818 177.017 74.2223 176.207 74.2133C175.834 74.2133 175.662 74.34 175.662 74.5258C175.662 74.7285 175.855 74.8721 176.661 75.0115C178.583 75.3578 179.867 75.9405 179.867 77.4524C179.867 79.0403 178.57 80.0117 176.552 80.0117C175.159 80.0787 173.789 79.6328 172.699 78.7574Z" fill="#FF7500"/>
<path d="M180.278 76.1398C180.285 75.6075 180.398 75.082 180.61 74.5941C180.822 74.1063 181.128 73.6658 181.511 73.2985C181.894 72.9312 182.346 72.6444 182.84 72.455C183.335 72.2656 183.862 72.1773 184.39 72.1954C186.707 72.1954 188.478 73.9142 188.478 76.1187V76.1398C188.47 76.6718 188.356 77.1968 188.144 77.6842C187.932 78.1716 187.626 78.6115 187.243 78.9784C186.86 79.3452 186.408 79.6316 185.914 79.8207C185.42 80.0099 184.894 80.098 184.365 80.08C182.049 80.0547 180.278 78.3401 180.278 76.1398ZM183.497 69.9402H185.259L186.686 71.7984H185.322L184.365 71.1945L183.413 71.7984H182.07L183.497 69.9402ZM185.943 76.1398C185.953 75.9238 185.92 75.7079 185.846 75.505C185.771 75.3021 185.657 75.1163 185.51 74.9587C185.363 74.8011 185.186 74.6749 184.989 74.5876C184.792 74.5003 184.58 74.4537 184.365 74.4505C184.152 74.4541 183.941 74.5013 183.746 74.589C183.551 74.6768 183.375 74.8035 183.23 74.9613C183.085 75.1192 182.973 75.305 182.902 75.5075C182.83 75.7101 182.8 75.9252 182.813 76.1398V76.1609C182.803 76.3768 182.837 76.5925 182.911 76.7951C182.986 76.9978 183.1 77.1833 183.247 77.3408C183.394 77.4982 183.571 77.6244 183.768 77.7119C183.964 77.7994 184.176 77.8464 184.39 77.8502C184.606 77.8467 184.819 77.799 185.015 77.71C185.212 77.6209 185.388 77.4923 185.533 77.3321C185.679 77.172 185.79 76.9836 185.861 76.7785C185.931 76.5735 185.959 76.3561 185.943 76.1398ZM187.059 68.3945L189.43 69.0111L187.659 70.4681H186.031L187.059 68.3945Z" fill="#FF7500"/>
<path d="M189.166 72.3379H191.516L194.189 75.6742V72.3379H196.678V79.8973H194.445L191.654 76.409V79.8973H189.166V72.3379Z" fill="#FF7500"/>
<path d="M197.37 76.1393C197.37 73.8799 199.137 72.1949 201.512 72.1949C202.665 72.1649 203.788 72.5736 204.655 73.3394L203.249 75.0286C202.79 74.6082 202.192 74.3736 201.571 74.3698C201.342 74.3695 201.116 74.4161 200.906 74.5067C200.696 74.5973 200.507 74.7301 200.35 74.897C200.193 75.0638 200.071 75.2612 199.992 75.477C199.914 75.6928 199.879 75.9225 199.892 76.152C199.879 76.3924 199.917 76.6327 200.003 76.8575C200.088 77.0823 200.22 77.2865 200.388 77.4569C200.557 77.6272 200.76 77.76 200.983 77.8466C201.206 77.9332 201.445 77.9717 201.684 77.9595C201.981 77.9834 202.279 77.9235 202.544 77.7864V77.0304H201.256V75.4214H204.894V78.9224C203.955 79.6793 202.782 80.08 201.579 80.0542C199.233 80.0542 197.37 78.479 197.37 76.1393Z" fill="#FF7500"/>
<path d="M208.36 72.3379H210.878V75.1674L213.014 72.3379H215.952L213.333 75.6193L216.006 79.8973H213.01L211.541 77.4986L210.895 78.2883V79.8973H208.377L208.36 72.3379Z" fill="#FF7500"/>
<path d="M216.195 72.3379H218.713V75.0027H221.008V72.3379H223.526V79.8973H221.008V77.1861H218.713V79.8973H216.195V72.3379Z" fill="#FF7500"/>
<path d="M224.206 76.1384C224.214 75.6064 224.326 75.0813 224.538 74.5937C224.749 74.1062 225.055 73.6659 225.438 73.2987C225.82 72.9314 226.272 72.6446 226.766 72.4549C227.259 72.2652 227.786 72.1765 228.314 72.194C230.631 72.194 232.402 73.9128 232.402 76.1173V76.1384C232.394 76.6702 232.281 77.1951 232.07 77.6825C231.858 78.1698 231.552 78.6098 231.17 78.9767C230.787 79.3436 230.336 79.6301 229.842 79.8193C229.348 80.0085 228.822 80.0966 228.293 80.0786C225.977 80.0533 224.206 78.3387 224.206 76.1384ZM227.769 70.7497C228.239 70.7159 228.562 70.5765 228.562 70.1542C228.562 70.1204 228.52 69.9599 228.26 69.9726C228.132 69.9922 228.012 70.0497 227.917 70.1376C227.821 70.2256 227.754 70.3401 227.723 70.4667L226.682 69.9388C227.165 68.9548 227.756 68.8281 228.314 68.8281C229.154 68.8281 229.808 69.3349 229.808 70.1457C229.813 70.4235 229.724 70.6947 229.557 70.9155C229.389 71.1362 229.153 71.2936 228.885 71.362L228.818 71.7843H227.811L227.769 70.7497ZM229.867 76.1384C229.877 75.9225 229.843 75.7069 229.768 75.5042C229.694 75.3016 229.58 75.116 229.432 74.9586C229.285 74.8011 229.108 74.6749 228.912 74.5874C228.716 74.4999 228.504 74.4529 228.289 74.4491C228.075 74.4522 227.864 74.4989 227.668 74.5864C227.473 74.6739 227.297 74.8005 227.151 74.9584C227.006 75.1163 226.894 75.3023 226.822 75.5052C226.75 75.708 226.719 75.9234 226.732 76.1384V76.1595C226.723 76.3754 226.756 76.5911 226.831 76.7937C226.906 76.9964 227.02 77.1819 227.167 77.3394C227.314 77.4968 227.491 77.623 227.687 77.7105C227.884 77.798 228.095 77.845 228.31 77.8488C228.526 77.8465 228.74 77.7996 228.937 77.711C229.135 77.6224 229.312 77.4941 229.459 77.3338C229.605 77.1735 229.717 76.9847 229.788 76.7791C229.859 76.5735 229.887 76.3554 229.871 76.1384H229.867Z" fill="#FF7500"/>
<path d="M233.094 72.3379H239.498V74.4114H235.562V75.1758H239.229V76.9834H235.562V77.828H239.552V79.9015H233.094V72.3379Z" fill="#FF7500"/>
<path d="M70.4326 42.666C63.8275 42.666 58.7162 47.7338 58.7162 54.1065V54.1783C58.7162 60.5722 63.7519 65.5555 70.3739 65.5555C76.9958 65.5555 82.0903 60.4877 82.0903 54.115V54.0516C82.0903 47.6493 77.042 42.666 70.4326 42.666ZM74.8683 54.1783C74.8683 56.746 73.1561 59.0688 70.4326 59.0688C67.7092 59.0688 65.9383 56.7164 65.9383 54.115V54.0516C65.9383 51.484 67.6504 49.1612 70.3739 49.1612C73.0974 49.1612 74.8683 51.5135 74.8683 54.115V54.1783Z" fill="#FF7500"/>
<path d="M137.701 42.666C131.096 42.666 125.985 47.7338 125.985 54.1065V54.1783C125.985 60.5722 131.02 65.5555 137.642 65.5555C144.264 65.5555 149.359 60.4877 149.359 54.115V54.0516C149.359 47.6493 144.311 42.666 137.701 42.666ZM142.137 54.1783C142.137 56.746 140.425 59.0688 137.701 59.0688C134.978 59.0688 133.207 56.7164 133.207 54.115V54.0516C133.207 51.484 134.919 49.1612 137.642 49.1612C140.366 49.1612 142.137 51.5135 142.137 54.115V54.1783Z" fill="#FF7500"/>
<path d="M215.645 54.0432C215.645 47.6493 210.61 42.666 203.988 42.666C197.366 42.666 192.271 47.7338 192.271 54.1065V54.1783C192.271 60.5722 197.307 65.5555 203.929 65.5555C210.551 65.5555 215.645 60.4877 215.645 54.115V54.0432ZM208.423 54.1699C208.423 56.7376 206.711 59.0603 203.988 59.0603C201.264 59.0603 199.493 56.7122 199.493 54.1065V54.0432C199.493 51.4755 201.205 49.1528 203.929 49.1528C206.652 49.1528 208.423 51.5051 208.423 54.1065V54.1699Z" fill="#FF7500"/>
<path d="M166.51 57.8409C169.027 56.5148 170.609 54.247 170.609 50.9149V50.8474C170.609 48.5204 169.984 46.8692 168.708 45.4755C167.252 43.8876 164.932 42.8867 161.226 42.8867H151.067V65.5481H158.016V59.0741H159.502L163.421 65.5481H171.352L166.51 57.8409ZM163.69 50.7756C163.69 52.1692 162.682 52.9758 161.016 52.9758H158.016V48.5415H161.046C162.682 48.5415 163.69 49.2552 163.69 50.7122V50.7756Z" fill="#FF7500"/>
<path d="M94.9732 49.2499C96.8742 49.2499 97.9401 50.3142 98.75 51.9105L104.487 48.3715C102.737 45.0183 99.6774 42.666 95.0739 42.666C88.8674 42.666 84.0248 47.5564 84.0248 54.1065V54.1783C84.0248 60.9776 89.0605 65.5555 94.8054 65.5555C97.115 65.625 99.3851 64.9406 101.276 63.6044L101.557 63.4059C102.489 62.7421 103.274 61.8908 103.861 60.9058C104.153 60.456 104.288 59.9209 104.243 59.3855C104.225 59.2276 104.157 59.0797 104.05 58.9632C104.022 58.9332 103.989 58.9076 103.954 58.8872C103.902 58.8645 103.849 58.8461 103.794 58.8323C103.506 58.8124 103.226 58.7353 102.968 58.6056C102.71 58.4758 102.48 58.2959 102.292 58.0763C102.204 57.9906 102.123 57.8989 102.048 57.8018C101.852 57.5616 101.682 57.3011 101.541 57.0247C101.509 56.9588 101.481 56.8912 101.457 56.822C101.399 56.6505 101.368 56.471 101.364 56.2899C101.364 56.2561 101.364 56.2139 101.364 56.1759C101.364 56.1379 101.364 56.0872 101.364 56.0238C101.377 55.8735 101.377 55.7223 101.364 55.572C101.33 55.4116 101.25 55.2649 101.134 55.1497C101.041 55.0532 100.931 54.9745 100.81 54.9174C100.635 54.8421 100.438 54.8331 100.257 54.892C100.005 55.0032 99.7917 55.1869 99.6438 55.4199C98.3513 57.5695 98.0492 57.7511 97.361 58.317C96.6677 58.8199 95.8217 59.0634 94.969 59.0054C92.682 59.0054 91.0748 56.9994 91.0748 54.1488V54.0854C91.079 51.4122 92.6274 49.2499 94.9732 49.2499Z" fill="#FF7500"/>
<path d="M44.4484 42.8695C44.4484 42.8695 39.27 42.8948 37.2054 42.8695C36.8613 42.8695 36.001 42.7639 33.4832 42.0248C33.2091 41.9448 32.918 41.9448 32.6439 42.0248C32.4663 42.0909 32.3176 42.218 32.2242 42.3838C32.1626 42.5002 32.1254 42.6282 32.1151 42.7597C32.0944 42.926 32.1267 43.0946 32.2075 43.2411C32.3231 43.4038 32.4538 43.5551 32.5977 43.693C32.8159 44.0055 33.0509 44.2547 33.0509 45.3569C33.0813 45.7011 33.0319 46.0476 32.9066 46.3693C32.7814 46.691 32.5837 46.9791 32.3292 47.2109C32.1945 47.3471 32.1165 47.5299 32.1109 47.7219C32.1261 47.9023 32.1859 48.076 32.2849 48.2272C32.3838 48.3785 32.5188 48.5023 32.6775 48.5876C33.2832 48.9444 33.9513 49.1809 34.6456 49.2845C35.3384 49.4086 36.0401 49.4764 36.7438 49.4872H43.4035H44.5617C45.5433 49.4587 46.5199 49.6386 47.4279 50.0151C48.9218 50.695 49.7862 52.0422 49.7862 54.1833V54.2509C49.7862 57.5238 47.7678 58.947 44.5617 58.947H43.4035V50.1629H36.5046V65.5563H44.226C52.6188 65.5563 56.8488 60.8264 56.8488 54.0862V54.0228C56.8362 47.2742 52.7069 42.8695 44.4484 42.8695Z" fill="#FF7500"/>
<path d="M126.354 47.5234C126.346 47.3434 126.271 47.1731 126.144 47.0461C125.907 46.8281 125.723 46.5583 125.606 46.2574C125.489 45.9565 125.442 45.6325 125.469 45.3104C125.469 44.2758 125.683 44.0435 125.888 43.7436C126.023 43.6144 126.145 43.4731 126.253 43.3213C126.329 43.1837 126.358 43.0252 126.337 42.8694C126.324 42.7457 126.289 42.6254 126.232 42.5147C126.145 42.3616 126.007 42.2447 125.842 42.1853C125.661 42.1362 125.47 42.1362 125.288 42.1853C125.222 42.1972 125.156 42.2127 125.091 42.2318C124.696 42.3247 124.348 42.4049 124.033 42.4683C123.39 42.613 122.738 42.7174 122.082 42.7808H121.553H105.716V49.2211H111.834V65.5478H118.784V49.2211H121.579C121.579 49.2211 121.822 49.2211 122.183 49.2211C122.796 49.2256 123.409 49.1733 124.012 49.0648C124.384 48.9943 124.748 48.8883 125.099 48.7481C125.817 48.4778 126.358 48.0555 126.354 47.5234Z" fill="#FF7500"/>
<path d="M265.788 47.5192C265.753 47.4424 265.706 47.3713 265.65 47.3081C265.377 47.0537 265.174 46.732 265.062 46.3748C264.966 46.0616 264.92 45.7353 264.924 45.4077C264.924 44.2801 265.163 44.0267 265.381 43.7184C265.528 43.5769 265.66 43.4213 265.776 43.2539C265.857 43.1044 265.889 42.933 265.868 42.764C265.856 42.6301 265.819 42.4996 265.759 42.3797C265.668 42.21 265.519 42.0794 265.339 42.0123C265.075 41.9428 264.796 41.9531 264.538 42.0418C263.396 42.3345 262.233 42.5322 261.059 42.633H255.419V52.7686L247.781 42.633H241.067V65.5606H248.18V55.0027L256.153 65.5606H262.532V49.5337C262.784 49.5084 263.048 49.4703 263.312 49.4197C264.571 49.1832 265.868 48.6764 265.868 47.8233C265.865 47.7172 265.838 47.6131 265.788 47.5192Z" fill="#FF7500"/>
<path d="M182.053 42.7261H177.752C177.718 42.7261 176.594 42.8739 173.606 42.0377C173.177 41.9038 172.726 41.8606 172.28 41.9111C172.07 41.9875 171.894 42.1374 171.784 42.3334C171.711 42.472 171.667 42.6244 171.654 42.781C171.629 42.9793 171.667 43.1805 171.763 43.3554C171.902 43.549 172.06 43.7287 172.233 43.8917C172.494 44.2676 172.779 44.5632 172.779 45.8766C172.779 47.3927 172.087 47.8953 171.91 48.0895C171.743 48.2453 171.642 48.4602 171.629 48.6892C171.629 49.2129 172.049 49.6183 172.661 49.9308C173.302 50.2318 173.982 50.4408 174.68 50.5516L175.1 50.6192V50.7501V65.5565H191.818V59.2809H182.053V42.7261Z" fill="#FF7500"/>
<path d="M223.459 42.6875H230.593L239.678 65.4334H231.864L230.723 62.4012H223.17L222.062 65.4334H214.374L223.459 42.6875ZM228.94 57.0462L226.967 51.5561L224.995 57.0462H228.94Z" fill="#FF7500"/>
</g>
<defs>
<clipPath id="clip0_4_990">
<rect width="298" height="119" fill="white"/>
</clipPath>
</defs>
</svg>
